<mxfile host="app.diagrams.net" agent="Mozilla/5.0 (Windows NT 10.0; Win64; x64) AppleWebKit/537.36 (KHTML, like Gecko) Chrome/138.0.0.0 Safari/537.36 Edg/138.0.0.0" version="28.0.4">
  <diagram name="Page-1" id="6exWdeUTz1LOEfJO4m5F">
    <mxGraphModel dx="1034" dy="570" grid="1" gridSize="10" guides="1" tooltips="1" connect="1" arrows="1" fold="1" page="1" pageScale="1" pageWidth="850" pageHeight="1100" math="0" shadow="0">
      <root>
        <mxCell id="0" />
        <mxCell id="1" parent="0" />
        <mxCell id="0Farpe769_bAaJMMHvzb-9" style="edgeStyle=orthogonalEdgeStyle;rounded=0;orthogonalLoop=1;jettySize=auto;html=1;entryX=0;entryY=0.5;entryDx=0;entryDy=0;curved=1;" edge="1" parent="1" source="0Farpe769_bAaJMMHvzb-1" target="0Farpe769_bAaJMMHvzb-4">
          <mxGeometry relative="1" as="geometry" />
        </mxCell>
        <mxCell id="0Farpe769_bAaJMMHvzb-10" style="edgeStyle=orthogonalEdgeStyle;rounded=0;orthogonalLoop=1;jettySize=auto;html=1;entryX=0;entryY=0.5;entryDx=0;entryDy=0;curved=1;" edge="1" parent="1" source="0Farpe769_bAaJMMHvzb-1" target="0Farpe769_bAaJMMHvzb-3">
          <mxGeometry relative="1" as="geometry" />
        </mxCell>
        <mxCell id="0Farpe769_bAaJMMHvzb-11" style="edgeStyle=orthogonalEdgeStyle;rounded=0;orthogonalLoop=1;jettySize=auto;html=1;entryX=0;entryY=0.5;entryDx=0;entryDy=0;curved=1;" edge="1" parent="1" source="0Farpe769_bAaJMMHvzb-1" target="0Farpe769_bAaJMMHvzb-2">
          <mxGeometry relative="1" as="geometry" />
        </mxCell>
        <mxCell id="0Farpe769_bAaJMMHvzb-1" value="Server" style="rounded=0;whiteSpace=wrap;html=1;fillColor=#b0e3e6;strokeColor=#0e8088;shadow=0;sketch=1;curveFitting=1;jiggle=2;glass=0;fontStyle=1;perimeterSpacing=1;fontSize=18;" vertex="1" parent="1">
          <mxGeometry x="90" y="210" width="120" height="60" as="geometry" />
        </mxCell>
        <mxCell id="0Farpe769_bAaJMMHvzb-14" style="edgeStyle=orthogonalEdgeStyle;rounded=0;orthogonalLoop=1;jettySize=auto;html=1;entryX=0;entryY=0.5;entryDx=0;entryDy=0;curved=1;" edge="1" parent="1" source="0Farpe769_bAaJMMHvzb-2" target="0Farpe769_bAaJMMHvzb-8">
          <mxGeometry relative="1" as="geometry" />
        </mxCell>
        <mxCell id="0Farpe769_bAaJMMHvzb-2" value="/form" style="rounded=0;whiteSpace=wrap;html=1;fillColor=#b0e3e6;strokeColor=#0e8088;shadow=0;sketch=1;curveFitting=1;jiggle=2;glass=0;fontStyle=1;perimeterSpacing=1;fontSize=16;" vertex="1" parent="1">
          <mxGeometry x="320" y="320" width="120" height="60" as="geometry" />
        </mxCell>
        <mxCell id="0Farpe769_bAaJMMHvzb-13" style="edgeStyle=orthogonalEdgeStyle;rounded=0;orthogonalLoop=1;jettySize=auto;html=1;curved=1;" edge="1" parent="1" source="0Farpe769_bAaJMMHvzb-3" target="0Farpe769_bAaJMMHvzb-5">
          <mxGeometry relative="1" as="geometry" />
        </mxCell>
        <mxCell id="0Farpe769_bAaJMMHvzb-3" value="/hello" style="rounded=0;whiteSpace=wrap;html=1;fillColor=#b0e3e6;strokeColor=#0e8088;shadow=0;sketch=1;curveFitting=1;jiggle=2;glass=0;fontStyle=1;perimeterSpacing=1;fontSize=16;" vertex="1" parent="1">
          <mxGeometry x="320" y="210" width="120" height="60" as="geometry" />
        </mxCell>
        <mxCell id="0Farpe769_bAaJMMHvzb-12" style="edgeStyle=orthogonalEdgeStyle;rounded=0;orthogonalLoop=1;jettySize=auto;html=1;entryX=0;entryY=0.5;entryDx=0;entryDy=0;curved=1;" edge="1" parent="1" source="0Farpe769_bAaJMMHvzb-4" target="0Farpe769_bAaJMMHvzb-6">
          <mxGeometry relative="1" as="geometry" />
        </mxCell>
        <mxCell id="0Farpe769_bAaJMMHvzb-4" value="/" style="rounded=0;whiteSpace=wrap;html=1;fillColor=#b0e3e6;strokeColor=#0e8088;shadow=0;sketch=1;curveFitting=1;jiggle=2;glass=0;fontStyle=1;perimeterSpacing=1;fontSize=16;" vertex="1" parent="1">
          <mxGeometry x="320" y="100" width="120" height="60" as="geometry" />
        </mxCell>
        <mxCell id="0Farpe769_bAaJMMHvzb-5" value="hello func" style="rounded=0;whiteSpace=wrap;html=1;fillColor=#b0e3e6;strokeColor=#0e8088;shadow=0;sketch=1;curveFitting=1;jiggle=2;glass=0;fontStyle=1;perimeterSpacing=1;fontSize=16;" vertex="1" parent="1">
          <mxGeometry x="680" y="210" width="120" height="60" as="geometry" />
        </mxCell>
        <mxCell id="0Farpe769_bAaJMMHvzb-6" value="index.html" style="rounded=0;whiteSpace=wrap;html=1;fillColor=#b0e3e6;strokeColor=#0e8088;shadow=0;sketch=1;curveFitting=1;jiggle=2;glass=0;fontStyle=1;perimeterSpacing=1;fontSize=16;" vertex="1" parent="1">
          <mxGeometry x="680" y="100" width="120" height="60" as="geometry" />
        </mxCell>
        <mxCell id="0Farpe769_bAaJMMHvzb-7" value="form.html" style="rounded=0;whiteSpace=wrap;html=1;fillColor=#b0e3e6;strokeColor=#0e8088;shadow=0;sketch=1;curveFitting=1;jiggle=2;glass=0;fontStyle=1;perimeterSpacing=1;fontSize=16;" vertex="1" parent="1">
          <mxGeometry x="680" y="320" width="120" height="60" as="geometry" />
        </mxCell>
        <mxCell id="0Farpe769_bAaJMMHvzb-15" style="edgeStyle=orthogonalEdgeStyle;rounded=0;orthogonalLoop=1;jettySize=auto;html=1;entryX=0;entryY=0.5;entryDx=0;entryDy=0;curved=1;" edge="1" parent="1" source="0Farpe769_bAaJMMHvzb-8" target="0Farpe769_bAaJMMHvzb-7">
          <mxGeometry relative="1" as="geometry" />
        </mxCell>
        <mxCell id="0Farpe769_bAaJMMHvzb-8" value="form func" style="rounded=0;whiteSpace=wrap;html=1;fillColor=#b0e3e6;strokeColor=#0e8088;shadow=0;sketch=1;curveFitting=1;jiggle=2;glass=0;fontStyle=1;perimeterSpacing=1;fontSize=16;" vertex="1" parent="1">
          <mxGeometry x="500" y="320" width="120" height="60" as="geometry" />
        </mxCell>
      </root>
    </mxGraphModel>
  </diagram>
</mxfile>
